# xmcd
#
# Track frame offsets: 
#        150
#        22043
#        41912
#        63714
#        83361
#        104549
#        120846
#        135156
#
# Disc length: 2191 seconds
#
# Revision: 3
# Processed by: cddbd v1.5.2PL0 Copyright (c) Steve Scherf et al.
# Submitted via: ExactAudioCopyFreeDBPlugin 1.0
#
DISCID=5f088d08
DTITLE=Loredana Berté - Made In Italy
DYEAR=1981
DGENRE=New Age
TTITLE0=Movie
TTITLE1=Ninna Nanna
TTITLE2=Lontano Da Dove
TTITLE3=Amica Notte
TTITLE4=La Goccia
TTITLE5=La Tigre
TTITLE6=Canterò
TTITLE7=Number One
EXTD=YEAR: 1981
EXTT0=
EXTT1=
EXTT2=
EXTT3=
EXTT4=
EXTT5=
EXTT6=
EXTT7=
PLAYORDER=
